HIERARCHY
ROOT Hips
{
  OFFSET 373.837 88.1643 177.628
  CHANNELS 6 Xposition Yposition Zposition Zrotation Xrotation Yrotation
  JOINT RightUpLeg
  {
    OFFSET -9.27602 -1.55371 -0.0617006
    CHANNELS 3 Zrotation Xrotation Yrotation
    JOINT RightLeg
    {
      OFFSET 0.0569767 -41.8713 0.0644562
      CHANNELS 3 Zrotation Xrotation Yrotation
      JOINT RightFoot
      {
        OFFSET -0.463049 -43.0064 -0.0336586
        CHANNELS 3 Zrotation Xrotation Yrotation
        End Site
        {
          OFFSET 0 -7.69 17.5
        }
      }
    }
  }
  JOINT LeftUpLeg
  {
    OFFSET 9.29312 -1.63815 0.0236341
    CHANNELS 3 Zrotation Xrotation Yrotation
    JOINT LeftLeg
    {
      OFFSET 0.0670365 -41.8776 -0.0578197
      CHANNELS 3 Zrotation Xrotation Yrotation
      JOINT LeftFoot
      {
        OFFSET 0.591956 -40.8352 0.210268
        CHANNELS 3 Zrotation Xrotation Yrotation
        End Site
        {
          OFFSET 0 -7.69 17.5
        }
      }
    }
  }
  JOINT Spine
  {
    OFFSET 0.0229142 14.2949 0.0394214
    CHANNELS 3 Zrotation Xrotation Yrotation
    JOINT Spine1
    {
      OFFSET 0.0328969 9.71943 0.0194292
      CHANNELS 3 Zrotation Xrotation Yrotation
      JOINT Spine2
      {
        OFFSET 0.0292955 10.1244 -0.00440821
        CHANNELS 3 Zrotation Xrotation Yrotation
        JOINT Spine3
        {
          OFFSET 0.024556 9.71184 0.0101567
          CHANNELS 3 Zrotation Xrotation Yrotation
          JOINT Neck
          {
            OFFSET 0.152325 10.3757 0.0664015
            CHANNELS 3 Zrotation Xrotation Yrotation
            JOINT Head
            {
              OFFSET 0.134553 9.4858 0.0499874
              CHANNELS 3 Zrotation Xrotation Yrotation
              End Site
              {
                OFFSET 0 15.95 0
              }
            }
          }
          JOINT RightShoulder
          {
            OFFSET -3.19519 6.89024 -0.0330231
            CHANNELS 3 Zrotation Xrotation Yrotation
            JOINT RightArm
            {
              OFFSET -12.6524 0.0927817 0.0603028
              CHANNELS 3 Zrotation Xrotation Yrotation
              JOINT RightForeArm
              {
                OFFSET -26.4983 -0.141459 0.202928
                CHANNELS 3 Zrotation Xrotation Yrotation
                JOINT RightHand
                {
                  OFFSET -25.9883 -0.0240172 0.0141731
                  CHANNELS 3 Zrotation Xrotation Yrotation
                  JOINT RightHandThumb1
                  {
                    OFFSET -2.48905 0.190105 3.12053
                    CHANNELS 3 Zrotation Xrotation Yrotation
                    JOINT RightHandThumb2
                    {
                      OFFSET -3.68274 0 0
                      CHANNELS 3 Zrotation Xrotation Yrotation
                      JOINT RightHandThumb3
                      {
                        OFFSET -2.55832 0 0
                        CHANNELS 3 Zrotation Xrotation Yrotation
                        End Site
                        {
                          OFFSET -2.194 0 0
                        }
                      }
                    }
                  }
                  JOINT RightInHandIndex
                  {
                    OFFSET -3.22368 0.508421 1.97842
                    CHANNELS 3 Zrotation Xrotation Yrotation
                    JOINT RightHandIndex1
                    {
                      OFFSET -5.21684 -0.091368 0.999158
                      CHANNELS 3 Zrotation Xrotation Yrotation
                      JOINT RightHandIndex2
                      {
                        OFFSET -3.61937 0 0
                        CHANNELS 3 Zrotation Xrotation Yrotation
                        JOINT RightHandIndex3
                        {
                          OFFSET -2.0521 0 0
                          CHANNELS 3 Zrotation Xrotation Yrotation
                          End Site
                          {
                            OFFSET -1.805 0 0
                          }
                        }
                      }
                    }
                  }
                  JOINT RightInHandMiddle
                  {
                    OFFSET -3.38211 0.517263 0.756737
                    CHANNELS 3 Zrotation Xrotation Yrotation
                    JOINT RightHandMiddle1
                    {
                      OFFSET -5.17411 -0.084 0.313895
                      CHANNELS 3 Zrotation Xrotation Yrotation
                      JOINT RightHandMiddle2
                      {
                        OFFSET -3.94947 0 0
                        CHANNELS 3 Zrotation Xrotation Yrotation
                        JOINT RightHandMiddle3
                        {
                          OFFSET -2.47579 0 0
                          CHANNELS 3 Zrotation Xrotation Yrotation
                          End Site
                          {
                            OFFSET -1.975 0 0
                          }
                        }
                      }
                    }
                  }
                  JOINT RightInHandRing
                  {
                    OFFSET -3.36516 0.537895 -0.128947
                    CHANNELS 3 Zrotation Xrotation Yrotation
                    JOINT RightHandRing1
                    {
                      OFFSET -4.63474 -0.022105 -0.478947
                      CHANNELS 3 Zrotation Xrotation Yrotation
                      JOINT RightHandRing2
                      {
                        OFFSET -3.44238 0 0
                        CHANNELS 3 Zrotation Xrotation Yrotation
                        JOINT RightHandRing3
                        {
                          OFFSET -2.3881 0 0
                          CHANNELS 3 Zrotation Xrotation Yrotation
                          End Site
                          {
                            OFFSET -1.857 0 0
                          }
                        }
                      }
                    }
                  }
                  JOINT RightInHandPinky
                  {
                    OFFSET -3.16105 0.469368 -1.20179
                    CHANNELS 3 Zrotation Xrotation Yrotation
                    JOINT RightHandPinky1
                    {
                      OFFSET -4.14105 -0.022105 -1.09053
                      CHANNELS 3 Zrotation Xrotation Yrotation
                      JOINT RightHandPinky2
                      {
                        OFFSET -2.75653 0 0
                        CHANNELS 3 Zrotation Xrotation Yrotation
                        JOINT RightHandPinky3
                        {
                          OFFSET -1.74189 0 0
                          CHANNELS 3 Zrotation Xrotation Yrotation
                          End Site
                          {
                            OFFSET -1.645 0 0
                          }
                        }
                      }
                    }
                  }
                }
              }
            }
          }
          JOINT LeftShoulder
          {
            OFFSET 3.28609 6.87948 -0.0751467
            CHANNELS 3 Zrotation Xrotation Yrotation
            JOINT LeftArm
            {
              OFFSET 12.831 -0.0663252 -0.1321
              CHANNELS 3 Zrotation Xrotation Yrotation
              JOINT LeftForeArm
              {
                OFFSET 26.5106 -0.082189 -0.0903645
                CHANNELS 3 Zrotation Xrotation Yrotation
                JOINT LeftHand
                {
                  OFFSET 25.9965 -0.0307163 -0.0535747
                  CHANNELS 3 Zrotation Xrotation Yrotation
                  JOINT LeftHandThumb1
                  {
                    OFFSET 2.48905 0.190105 3.12053
                    CHANNELS 3 Zrotation Xrotation Yrotation
                    JOINT LeftHandThumb2
                    {
                      OFFSET 3.68274 0 0
                      CHANNELS 3 Zrotation Xrotation Yrotation
                      JOINT LeftHandThumb3
                      {
                        OFFSET 2.55832 0 0
                        CHANNELS 3 Zrotation Xrotation Yrotation
                        End Site
                        {
                          OFFSET 2.194 0 0
                        }
                      }
                    }
                  }
                  JOINT LeftInHandIndex
                  {
                    OFFSET 3.22368 0.508421 1.97842
                    CHANNELS 3 Zrotation Xrotation Yrotation
                    JOINT LeftHandIndex1
                    {
                      OFFSET 5.21684 -0.091368 0.999158
                      CHANNELS 3 Zrotation Xrotation Yrotation
                      JOINT LeftHandIndex2
                      {
                        OFFSET 3.61937 0 0
                        CHANNELS 3 Zrotation Xrotation Yrotation
                        JOINT LeftHandIndex3
                        {
                          OFFSET 2.0521 0 0
                          CHANNELS 3 Zrotation Xrotation Yrotation
                          End Site
                          {
                            OFFSET 1.805 0 0
                          }
                        }
                      }
                    }
                  }
                  JOINT LeftInHandMiddle
                  {
                    OFFSET 3.38211 0.517263 0.756737
                    CHANNELS 3 Zrotation Xrotation Yrotation
                    JOINT LeftHandMiddle1
                    {
                      OFFSET 5.17411 -0.084 0.313895
                      CHANNELS 3 Zrotation Xrotation Yrotation
                      JOINT LeftHandMiddle2
                      {
                        OFFSET 3.94947 0 0
                        CHANNELS 3 Zrotation Xrotation Yrotation
                        JOINT LeftHandMiddle3
                        {
                          OFFSET 2.47579 0 0
                          CHANNELS 3 Zrotation Xrotation Yrotation
                          End Site
                          {
                            OFFSET 1.975 0 0
                          }
                        }
                      }
                    }
                  }
                  JOINT LeftInHandRing
                  {
                    OFFSET 3.36516 0.537895 -0.128947
                    CHANNELS 3 Zrotation Xrotation Yrotation
                    JOINT LeftHandRing1
                    {
                      OFFSET 4.63474 -0.022105 -0.478947
                      CHANNELS 3 Zrotation Xrotation Yrotation
                      JOINT LeftHandRing2
                      {
                        OFFSET 3.44238 0 0
                        CHANNELS 3 Zrotation Xrotation Yrotation
                        JOINT LeftHandRing3
                        {
                          OFFSET 2.3881 0 0
                          CHANNELS 3 Zrotation Xrotation Yrotation
                          End Site
                          {
                            OFFSET 1.857 0 0
                          }
                        }
                      }
                    }
                  }
                  JOINT LeftInHandPinky
                  {
                    OFFSET 3.16105 0.469368 -1.20179
                    CHANNELS 3 Zrotation Xrotation Yrotation
                    JOINT LeftHandPinky1
                    {
                      OFFSET 4.14105 -0.022105 -1.09053
                      CHANNELS 3 Zrotation Xrotation Yrotation
                      JOINT LeftHandPinky2
                      {
                        OFFSET 2.75653 0 0
                        CHANNELS 3 Zrotation Xrotation Yrotation
                        JOINT LeftHandPinky3
                        {
                          OFFSET 1.74189 0 0
                          CHANNELS 3 Zrotation Xrotation Yrotation
                          End Site
                          {
                            OFFSET 1.645 0 0
                          }
                        }
                      }
                    }
                  }
                }
              }
            }
          }
        }
      }
    }
  }
}
MOTION
Frames: 3
Frame Time: 0.00833333
9.050167446307002592e+02 8.371515679394008203e-01 1.471044371930275929e+00 -3.094793259257563989e+00 3.268711696743290318e+00 4.463667612966516174e+01 -2.594364984908303740e+01 2.164592661775628812e+00 -2.141539765933983475e+01 2.059074908808185000e+00 1.286237705504081674e+00 -6.107296143315196879e+00 -3.161314016176129726e+00 -2.993042318215085373e+00 -1.692237908941620361e+01 -1.366274302447264688e+01 -1.136359527177529571e+01 -1.113795749803375656e+01 1.441046647659728563e+01 -6.733170579347579121e+00 -1.395049106077232182e+01 -1.004273372990069646e+01 5.227984576643542880e+00 -2.491539557180721687e+01 -8.155302177977148403e-01 7.454714924197163306e+00 1.385800668506236732e+01 -7.069286298980637095e-02 1.704232813098276011e+00 3.499460784957556747e+00 -1.433628842411773796e-01 2.669601323557760253e+00 5.731859375070291307e+00 2.599090654590857641e-01 9.833289575774817326e-02 -1.916043187517088242e+00 1.297197863580105137e-01 3.779809386602243304e+00 -2.239756441165926404e+01 4.169074258652555542e+00 -6.301866774634797608e+00 -2.367312492249379829e+01 -1.806039076397088827e+00 -5.847917588783500875e+00 1.298672849426575304e+01 9.946979280192081774e+00 2.929092527939665302e+01 2.710268287946836807e+01 -1.019606988778203061e+01 -1.282083172499962842e+01 -4.934518923459236817e+01 8.470949318497702052e+00 8.287981019039996511e+00 -8.074092068911859599e+00 0.000000000000000000e+00 0.000000000000000000e+00 0.000000000000000000e+00 5.850851248380313725e-16 9.598743562642110927e-16 0.000000000000000000e+00 1.087117715940218680e-16 5.779619722826484758e-16 0.000000000000000000e+00 -2.558129511352540387e-15 -1.002480678703946052e-15 2.598994320581012687e-16 0.000000000000000000e+00 0.000000000000000000e+00 0.000000000000000000e+00 0.000000000000000000e+00 4.071885597020626967e-16 8.302682487541712003e-16 0.000000000000000000e+00 -5.602833228229485101e-15 -3.030865369359071191e-14 -2.558129511352540387e-15 -1.002480678703946052e-15 2.598994320581012687e-16 0.000000000000000000e+00 -1.758098382599424682e-16 3.324870567122448236e-16 0.000000000000000000e+00 -5.252570346879612579e-16 1.674500506037045422e-15 0.000000000000000000e+00 -5.013291682413675692e-15 -2.993095642535594250e-14 -2.558129511352540387e-15 -1.002480678703946052e-15 2.598994320581012687e-16 0.000000000000000000e+00 0.000000000000000000e+00 0.000000000000000000e+00 0.000000000000000000e+00 -3.068529073143677324e-16 1.378917109490785216e-15 0.000000000000000000e+00 -8.295106695286455719e-16 -6.657651849432214289e-15 -2.558129511352540387e-15 -1.002480678703946052e-15 2.598994320581012687e-16 0.000000000000000000e+00 0.000000000000000000e+00 0.000000000000000000e+00 0.000000000000000000e+00 7.321945054977717726e-16 2.471443849009615780e-15 0.000000000000000000e+00 -2.397025874054249033e-15 3.875771205862242370e-16 2.147690315990333332e+00 4.530102408438823502e+00 1.137630240671553850e+01 -1.071836508268863497e+01 -2.737073091234936584e+00 1.964153533241814387e+01 -2.387754319109631851e+01 -2.958949801952715219e+01 -2.886475091350792610e+00 3.308458915273160272e+00 -3.535720471521219821e+00 5.857676884009107354e+00 0.000000000000000000e+00 0.000000000000000000e+00 0.000000000000000000e+00 -1.534526352601044774e-15 1.100126131975454728e-15 0.000000000000000000e+00 9.941246819562587032e-16 8.778982626080347416e-16 0.000000000000000000e+00 -1.144671716476330709e-15 -4.509014348564565310e-16 -1.148228935231600803e-15 0.000000000000000000e+00 0.000000000000000000e+00 0.000000000000000000e+00 0.000000000000000000e+00 8.933231001513846982e-16 1.140535709256740160e-15 0.000000000000000000e+00 -5.533745352269865695e-16 1.537551428937063224e-16 -1.144671716476330709e-15 -4.509014348564565310e-16 -1.148228935231600803e-15 0.000000000000000000e+00 5.215972958175507205e-16 -2.213958939896346814e-15 0.000000000000000000e+00 4.480128677068809744e-16 -1.905880453698564135e-16 0.000000000000000000e+00 3.236139751994936745e-16 -5.655263448965288706e-16 -1.144671716476330709e-15 -4.509014348564565310e-16 -1.148228935231600803e-15 0.000000000000000000e+00 0.000000000000000000e+00 0.000000000000000000e+00 0.000000000000000000e+00 3.621743342633850909e-16 -6.296356169189228010e-16 0.000000000000000000e+00 6.213280784872082769e-16 3.324254646329648999e-16 -1.144671716476330709e-15 -4.509014348564565310e-16 -1.148228935231600803e-15 0.000000000000000000e+00 0.000000000000000000e+00 0.000000000000000000e+00 0.000000000000000000e+00 1.624476677691370288e-15 -3.173353935446050616e-16 0.000000000000000000e+00 6.973087992415501796e-16 1.268941683397447372e-15
9.049773388811886434e+02 8.366022929443346356e-01 1.441617103555245194e+00 -3.118431795277004426e+00 3.132860729360168683e+00 4.422382521508491493e+01 -2.557794525126485041e+01 2.278230013354004768e+00 -2.108077350551041818e+01 2.018745346271667795e+00 1.205566029832784380e+00 -6.057810817042548202e+00 -3.178145958067862153e+00 -2.827071202095311264e+00 -1.666542970236939780e+01 -1.354315331848982140e+01 -1.108153537084579909e+01 -1.095956120657910660e+01 1.419495681372042917e+01 -6.742845179323829541e+00 -1.375668248108963532e+01 -9.959370270141464587e+00 5.155966496890741269e+00 -2.473836662769843997e+01 -8.734726866750408547e-01 7.335255483590015224e+00 1.381292990262897469e+01 -8.669963494422616712e-02 1.672203977189668178e+00 3.486393508222525917e+00 -1.693869817294852975e-01 2.617223134463649625e+00 5.708242622324880777e+00 2.552182565977914042e-01 9.248210082223295991e-02 -1.895802286672820136e+00 1.424317167163383635e-01 3.713474260473835109e+00 -2.215266358073292352e+01 4.091483366771683450e+00 -6.251506377379408619e+00 -2.342793041204125615e+01 -1.817742922515619419e+00 -5.729448346168396711e+00 1.292930902399819537e+01 9.611193266508905708e+00 2.885875231731445467e+01 2.690961485137725262e+01 -9.872213790686011237e+00 -1.279154448693210355e+01 -4.850370945611595630e+01 8.423838280330752326e+00 8.376142543527631545e+00 -8.099951878864619204e+00 0.000000000000000000e+00 0.000000000000000000e+00 0.000000000000000000e+00 5.667666801795362064e-16 9.442082071579892961e-16 0.000000000000000000e+00 1.055716876127557837e-16 5.691767100816281830e-16 0.000000000000000000e+00 -2.514235425674934839e-15 -9.781546203540205451e-16 2.570337022655409558e-16 0.000000000000000000e+00 0.000000000000000000e+00 0.000000000000000000e+00 0.000000000000000000e+00 3.907284820515966879e-16 8.514018581482098170e-16 0.000000000000000000e+00 -5.505859936904149205e-15 -2.966932298472557988e-14 -2.514235425674934839e-15 -9.781546203540205451e-16 2.570337022655409558e-16 0.000000000000000000e+00 -2.019512575437875274e-16 3.284950169247912468e-16 0.000000000000000000e+00 -5.194964039273926480e-16 1.658493560151192693e-15 0.000000000000000000e+00 -4.904489672086547553e-15 -2.934170902651767239e-14 -2.514235425674934839e-15 -9.781546203540205451e-16 2.570337022655409558e-16 0.000000000000000000e+00 0.000000000000000000e+00 0.000000000000000000e+00 0.000000000000000000e+00 -3.077595676961357436e-16 1.363959890606981333e-15 0.000000000000000000e+00 -8.299567853478627783e-16 -6.534897356857661163e-15 -2.514235425674934839e-15 -9.781546203540205451e-16 2.570337022655409558e-16 0.000000000000000000e+00 0.000000000000000000e+00 0.000000000000000000e+00 0.000000000000000000e+00 7.197440516453620941e-16 2.471870488015455109e-15 0.000000000000000000e+00 -2.388625554505459485e-15 4.169892933337425811e-16 2.086351146071285356e+00 4.465893629412391874e+00 1.121153914662428974e+01 -1.053463409531034500e+01 -2.842282445234797450e+00 1.942590693721778905e+01 -2.337877846284875361e+01 -2.932400546025154142e+01 -2.975171025203955821e+00 3.346698594347948585e+00 -3.506175899304064814e+00 5.807551893432203016e+00 0.000000000000000000e+00 0.000000000000000000e+00 0.000000000000000000e+00 -1.486780787527505537e-15 1.102958393585658553e-15 0.000000000000000000e+00 1.013479649729780151e-15 8.685878210109619097e-16 0.000000000000000000e+00 -1.123278571915390214e-15 -4.610027543951902971e-16 -1.147504814421344819e-15 0.000000000000000000e+00 0.000000000000000000e+00 0.000000000000000000e+00 0.000000000000000000e+00 8.947440347527923739e-16 1.138291853189745133e-15 0.000000000000000000e+00 -5.378899105856516832e-16 1.513455452498476290e-16 -1.123278571915390214e-15 -4.610027543951902971e-16 -1.147504814421344819e-15 0.000000000000000000e+00 5.689924236381055629e-16 -2.214272102516576731e-15 0.000000000000000000e+00 4.333832893833562586e-16 -2.222721113620846857e-16 0.000000000000000000e+00 3.455345914253725333e-16 -5.683791451054728076e-16 -1.123278571915390214e-15 -4.610027543951902971e-16 -1.147504814421344819e-15 0.000000000000000000e+00 0.000000000000000000e+00 0.000000000000000000e+00 0.000000000000000000e+00 3.484861025748993653e-16 -6.613809586666037311e-16 0.000000000000000000e+00 6.222115851816715287e-16 3.089676869084079554e-16 -1.123278571915390214e-15 -4.610027543951902971e-16 -1.147504814421344819e-15 0.000000000000000000e+00 0.000000000000000000e+00 0.000000000000000000e+00 0.000000000000000000e+00 1.620903711798735879e-15 -2.974519621986647714e-16 0.000000000000000000e+00 6.778896834977261426e-16 1.250386123270518803e-15
9.049370436699366564e+02 8.358041572125500807e-01 1.412488414765334710e+00 -3.141124403217993688e+00 2.997141163948030318e+00 4.380209651343250243e+01 -2.520837081592843987e+01 2.389818172092937232e+00 -2.074287938952554811e+01 1.978219478183195434e+00 1.125250046676327997e+00 -6.007044515602747659e+00 -3.194090452358986809e+00 -2.661949581059534609e+00 -1.640610040093010724e+01 -1.342073241742703971e+01 -1.079897679494204255e+01 -1.077916718529045070e+01 1.397743070895330675e+01 -6.750137583670550612e+00 -1.356060533753949393e+01 -9.874208543966119578e+00 5.082571944812162457e+00 -2.455639382691907713e+01 -9.305058072383687318e-01 7.215200770553373388e+00 1.376443512758080345e+01 -1.025067144014604192e-01 1.640092250537209750e+00 3.472479350835520062e+00 -1.950781493093112218e-01 2.564747219587346638e+00 5.683263928186322644e+00 2.504662533536795577e-01 8.663459254703431700e-02 -1.875179551575210546e+00 1.547938012427052534e-01 3.646788871067240478e+00 -2.190448622150457325e+01 4.012934231943480867e+00 -6.200427684046996291e+00 -2.317729715749412733e+01 -1.828741165529716106e+00 -5.610280519891653661e+00 1.286891291209130550e+01 9.277636047708604394e+00 2.842209246110991927e+01 2.671174042710233820e+01 -9.546404879632177654e+00 -1.275810783375920465e+01 -4.765658717214282802e+01 8.375166785336297437e+00 8.460885243493315500e+00 -8.123711700040143313e+00 0.000000000000000000e+00 0.000000000000000000e+00 0.000000000000000000e+00 5.483503089977619520e-16 9.284739063551659708e-16 0.000000000000000000e+00 1.024789083535481308e-16 5.602576391997957555e-16 0.000000000000000000e+00 -2.469722367375883577e-15 -9.537929739640184767e-16 2.540207176850774209e-16 0.000000000000000000e+00 0.000000000000000000e+00 0.000000000000000000e+00 0.000000000000000000e+00 3.745313464514089568e-16 8.720552188569487202e-16 0.000000000000000000e+00 -5.407819697072108471e-15 -2.902525156530486256e-14 -2.469722367375883577e-15 -9.537929739640184767e-16 2.540207176850774209e-16 0.000000000000000000e+00 -2.278244492374205971e-16 3.243292812277350101e-16 0.000000000000000000e+00 -5.136910366899054062e-16 1.641971995129084634e-15 0.000000000000000000e+00 -4.794780800565540731e-15 -2.874719032935131333e-14 -2.469722367375883577e-15 -9.537929739640184767e-16 2.540207176850774209e-16 0.000000000000000000e+00 0.000000000000000000e+00 0.000000000000000000e+00 0.000000000000000000e+00 -3.085230708445592888e-16 1.348920026936314935e-15 0.000000000000000000e+00 -8.302278916255800969e-16 -6.411153937727668944e-15 -2.469722367375883577e-15 -9.537929739640184767e-16 2.540207176850774209e-16 0.000000000000000000e+00 0.000000000000000000e+00 0.000000000000000000e+00 0.000000000000000000e+00 7.073986465969477948e-16 2.471555442572381049e-15 0.000000000000000000e+00 -2.379729442832734646e-15 4.456630086318663820e-16 2.025123469842615265e+00 4.401042688363501654e+00 1.104469162932117143e+01 -1.034946676291804124e+01 -2.945548134352133474e+00 1.920670236989909085e+01 -2.287927029956958336e+01 -2.905221253735638598e+01 -3.061443089439588761e+00 3.384056029012409539e+00 -3.476086886536425169e+00 5.756990271451281060e+00 0.000000000000000000e+00 0.000000000000000000e+00 0.000000000000000000e+00 -1.438956602751422037e-15 1.105453050248779799e-15 0.000000000000000000e+00 1.032117644035257750e-15 8.590708197539349810e-16 0.000000000000000000e+00 -1.101744192733684331e-15 -4.708504125785117501e-16 -1.146519936894230903e-15 0.000000000000000000e+00 0.000000000000000000e+00 0.000000000000000000e+00 0.000000000000000000e+00 8.958535998996631004e-16 1.135759534317546397e-15 0.000000000000000000e+00 -5.222975632891905228e-16 1.489231546120873982e-16 -1.101744192733684331e-15 -4.708504125785117501e-16 -1.146519936894230903e-15 0.000000000000000000e+00 6.156903043523153149e-16 -2.213973240080807134e-15 0.000000000000000000e+00 4.187860202413028616e-16 -2.535574105237600518e-16 0.000000000000000000e+00 3.671457794730955742e-16 -5.710426032073919173e-16 -1.101744192733684331e-15 -4.708504125785117501e-16 -1.146519936894230903e-15 0.000000000000000000e+00 0.000000000000000000e+00 0.000000000000000000e+00 0.000000000000000000e+00 3.348130025242644376e-16 -6.923655796983205137e-16 0.000000000000000000e+00 6.230499800521316173e-16 2.857636451132112700e-16 -1.101744192733684331e-15 -4.708504125785117501e-16 -1.146519936894230903e-15 0.000000000000000000e+00 0.000000000000000000e+00 0.000000000000000000e+00 0.000000000000000000e+00 1.616970713147723033e-15 -2.774259658171701555e-16 0.000000000000000000e+00 6.585558209103921847e-16 1.231808287179501301e-15
